<svg width="29" height="28" viewBox="0 0 29 28" fill="none" xmlns="http://www.w3.org/2000/svg">
<path d="M2.47713 20.4348C3.26379 23.5881 3.65712 25.1639 4.82846 26.0826C6.00125 26.9998 7.62211 26.9998 10.8638 26.9998H17.5346C20.7763 26.9998 22.3972 26.9998 23.5714 26.0826C24.7428 25.1639 25.1361 23.5881 25.9213 20.4348C27.1575 15.4775 27.7756 13.0003 26.4789 11.3334C25.1808 9.6665 22.632 9.6665 17.536 9.6665H10.8638C5.76641 9.6665 3.21913 9.6665 1.92099 11.3334C1.15883 12.3113 1.05653 13.5694 1.35333 15.4443" stroke="#2C4B42" stroke-width="2" stroke-linecap="round"/>
<path d="M25.0041 10.3888L23.9812 6.626C23.5864 5.17434 23.389 4.44922 22.9841 3.90178C22.5805 3.3579 22.0322 2.93892 21.4022 2.69278C20.7682 2.44434 20.019 2.44434 18.5206 2.44434M3.39258 10.3888L4.41552 6.626C4.81029 5.17434 5.00768 4.44922 5.41253 3.90178C5.8162 3.3579 6.36443 2.93892 6.9945 2.69278C7.62844 2.44434 8.37764 2.44434 9.87603 2.44434" stroke="#2C4B42" stroke-width="2"/>
<path d="M9.87695 2.44444C9.87695 2.06135 10.0287 1.69395 10.2989 1.42307C10.5691 1.15218 10.9356 1 11.3177 1H17.0808C17.4629 1 17.8294 1.15218 18.0996 1.42307C18.3698 1.69395 18.5216 2.06135 18.5216 2.44444C18.5216 2.82754 18.3698 3.19493 18.0996 3.46582C17.8294 3.73671 17.4629 3.88889 17.0808 3.88889H11.3177C10.9356 3.88889 10.5691 3.73671 10.2989 3.46582C10.0287 3.19493 9.87695 2.82754 9.87695 2.44444Z" stroke="#2C4B42" stroke-width="2"/>
</svg>
