<svg width="28" height="28" viewBox="0 0 28 28" fill="none" xmlns="http://www.w3.org/2000/svg">
<path d="M27 11.4C26.9519 9.6957 26.7905 8.6089 26.2441 7.682C25.4661 6.3625 24.0662 5.628 21.2676 4.1616L18.6655 2.7966C16.3809 1.5993 15.2386 1 14.0104 1C12.7822 1 11.6399 1.598 9.35528 2.7966L6.7532 4.1616C3.95466 5.628 2.55474 6.3625 1.77672 7.682C1 9.0002 1 10.6421 1 13.9246V14.0767C1 17.3579 1 18.9998 1.77672 20.318C2.55474 21.6375 3.95466 22.372 6.7532 23.8397L9.35528 25.2034C11.6399 26.4007 12.7822 27 14.0104 27C15.2386 27 16.3809 26.402 18.6655 25.2034L21.2676 23.8384C24.0662 22.3707 25.4661 21.6375 26.2441 20.318C26.7905 19.3911 26.9519 18.3043 27 16.6M25.7198 8.15L20.5156 10.75M20.5156 10.75L19.8651 11.075L14.0104 14M20.5156 10.75V15.3M20.5156 10.75L8.15572 4.25M14.0104 14L2.30104 8.15M14.0104 14V26.35" stroke="#2C4B42" stroke-width="2" stroke-linecap="round"/>
</svg>
