<svg width="39" height="60" viewBox="0 0 39 60" fill="none" xmlns="http://www.w3.org/2000/svg">
<g clip-path="url(#clip0_53_220)">
<path d="M38.4351 52.1898C38.7247 52.4238 38.8693 52.6965 38.8693 53.008C38.8693 53.2678 38.7509 53.5793 38.5139 53.943C37.9613 54.696 37.1975 55.3064 36.2234 55.7737C35.2493 56.2153 34.2487 56.436 33.2219 56.436C31.4843 56.436 30.1153 55.9296 29.1149 54.9168C28.1143 53.904 27.6141 52.5145 27.6141 50.7487V39.3349H21.6822C20.6291 39.3349 20.1025 38.9324 20.1025 38.1274C20.1025 37.7637 20.2342 37.478 20.4975 37.2702C20.7871 37.0626 21.182 36.9587 21.6822 36.9587H27.6141L27.9695 20.8135C27.9695 20.3201 27.7326 19.9435 27.9695 19.6838C28.2328 19.3982 28.4944 20.9931 28.5221 20.5265C28.9697 12.9903 29.8653 19.3982 30.1022 19.6838C30.3653 19.9435 30.5597 19.0282 30.5597 19.5216L30.4971 36.9587H35.8681C36.3419 36.9587 36.7106 37.0626 36.9737 37.2702C37.2633 37.4522 37.4083 37.7378 37.4083 38.1274C37.4083 38.9324 36.8949 39.3349 35.8681 39.3349H30.4971V50.9823C30.4971 52.9821 31.4448 53.9818 33.3406 53.9818C33.946 53.9818 34.499 53.8649 34.9993 53.6312C35.4993 53.3976 35.9996 53.0209 36.4999 52.5016C36.8949 52.0862 37.2767 51.8783 37.6452 51.8783C37.8821 51.8783 38.1455 51.9822 38.4351 52.1898Z" fill="#2C4B42"/>
<path d="M20.6399 59.864C20.1923 59.864 19.8238 59.7211 19.5341 59.4354C19.2709 59.1759 19.1392 58.7993 19.1392 58.3058V44.6327C18.0861 45.9311 16.8223 46.9181 15.3479 47.5933C13.8999 48.2685 12.2807 48.6061 10.4904 48.6061C7.27831 48.6061 4.75076 47.736 2.90779 45.996C1.0648 44.256 0.143311 41.854 0.143311 38.7894C0.143311 35.6212 1.0648 33.154 2.90779 31.3882C4.75076 29.622 7.34411 28.7393 10.6878 28.7393C14.4265 28.7393 17.2567 30.0897 19.1787 32.7905V30.2972C19.1787 29.804 19.3104 29.4274 19.5736 29.1676C19.8369 28.8819 20.1923 28.7393 20.6399 28.7393C21.0875 28.7393 21.4298 28.8819 21.6667 29.1676C21.93 29.4274 22.0617 29.804 22.0617 30.2972V58.3058C22.0617 58.7993 21.93 59.1759 21.6667 59.4354C21.4298 59.7211 21.0875 59.864 20.6399 59.864ZM10.7668 46.1519C12.3728 46.1519 13.8077 45.8272 15.0715 45.1781C16.3616 44.5287 17.362 43.646 18.0729 42.5292C18.8101 41.3863 19.1787 40.1011 19.1787 38.6726C19.1787 36.3613 18.4415 34.5435 16.9671 33.2189C15.4928 31.8684 13.4786 31.1932 10.9248 31.1932C8.34458 31.1932 6.38314 31.8426 5.04038 33.1411C3.72398 34.4137 3.06575 36.2964 3.06575 38.7894C3.06575 41.1007 3.73713 42.9056 5.07987 44.2043C6.44894 45.5028 8.34461 46.1519 10.7668 46.1519Z" fill="#2C4B42"/>
<path d="M10.1212 30.1284C9.67362 30.1284 9.31819 29.9987 9.05492 29.7389C8.81795 29.4532 8.69946 29.0637 8.69946 28.5704V1.73055C8.69946 1.23713 8.81795 0.860564 9.05492 0.600868C9.31819 0.315199 9.67362 0.172363 10.1212 0.172363C10.5688 0.172363 10.9242 0.315199 11.1875 0.600868C11.4508 0.860564 11.5824 1.23713 11.5824 1.73055L11.6219 14.235C13.8335 11.5861 16.6638 10.2616 20.1128 10.2616C22.2454 10.2616 24.1016 10.6642 25.6813 11.4693C27.261 12.2743 28.4721 13.43 29.3146 14.9362C30.1833 16.4165 30.6179 18.1694 30.6179 20.1951C30.6179 23.3634 29.6964 25.8175 27.8534 27.5575C26.0104 29.2715 23.417 30.1284 20.0733 30.1284C16.361 30.1284 13.5307 28.778 11.5824 26.0773V28.5704C11.5824 29.0378 11.4508 29.4145 11.1875 29.7001C10.9505 29.9858 10.5951 30.1284 10.1212 30.1284ZM19.8758 27.6744C22.456 27.6744 24.4043 27.0511 25.7208 25.8046C27.0372 24.5321 27.6954 22.6622 27.6954 20.1951C27.6954 17.8578 26.9977 16.027 25.6023 14.7025C24.2069 13.378 22.2981 12.7158 19.8758 12.7158C18.2961 12.7158 16.8744 13.0404 15.6107 13.6897C14.3469 14.3129 13.3596 15.1959 12.6487 16.3386C11.9379 17.4813 11.5824 18.7667 11.5824 20.1951C11.5824 22.5064 12.3196 24.3373 13.794 25.6877C15.2684 27.0122 17.2957 27.6744 19.8758 27.6744Z" fill="#2C4B42"/>
</g>
<defs>
<clipPath id="clip0_53_220">
<rect width="39" height="60" fill="white"/>
</clipPath>
</defs>
</svg>
