<svg width="47" height="68" viewBox="0 0 47 68" fill="none" xmlns="http://www.w3.org/2000/svg">
<g clip-path="url(#clip0_583_233)" filter="url(#filter0_d_583_233)">
<path d="M42.4351 52.1897C42.7247 52.4236 42.8693 52.6964 42.8693 53.0078C42.8693 53.2676 42.7509 53.5791 42.5139 53.9429C41.9613 54.6959 41.1975 55.3062 40.2234 55.7736C39.2493 56.2151 38.2487 56.4359 37.2219 56.4359C35.4843 56.4359 34.1153 55.9295 33.1149 54.9166C32.1143 53.9038 31.6141 52.5143 31.6141 50.7485V39.3347H25.6822C24.6291 39.3347 24.1025 38.9322 24.1025 38.1273C24.1025 37.7635 24.2342 37.4779 24.4975 37.27C24.7871 37.0625 25.182 36.9586 25.6822 36.9586H31.6141L31.9695 20.8134C31.9695 20.3199 31.7326 19.9434 31.9695 19.6837C32.2328 19.398 32.4944 20.993 32.5221 20.5263C32.9697 12.9902 33.8653 19.398 34.1022 19.6837C34.3653 19.9434 34.5597 19.0281 34.5597 19.5215L34.4971 36.9586H39.8681C40.3419 36.9586 40.7106 37.0625 40.9737 37.27C41.2633 37.452 41.4083 37.7377 41.4083 38.1273C41.4083 38.9322 40.8949 39.3347 39.8681 39.3347H34.4971V50.9822C34.4971 52.982 35.4448 53.9816 37.3406 53.9816C37.946 53.9816 38.499 53.8648 38.9993 53.6311C39.4993 53.3974 39.9996 53.0208 40.4999 52.5014C40.8949 52.086 41.2767 51.8782 41.6452 51.8782C41.8821 51.8782 42.1455 51.9821 42.4351 52.1897Z" fill="#F5EFE9"/>
<path d="M24.6399 59.8639C24.1923 59.8639 23.8238 59.721 23.5341 59.4353C23.2709 59.1758 23.1392 58.7991 23.1392 58.3056V44.6325C22.0861 45.931 20.8223 46.918 19.3479 47.5932C17.8999 48.2684 16.2807 48.606 14.4904 48.606C11.2783 48.606 8.75076 47.7359 6.90779 45.9959C5.0648 44.2559 4.14331 41.8539 4.14331 38.7893C4.14331 35.621 5.0648 33.1539 6.90779 31.388C8.75076 29.6219 11.3441 28.7391 14.6878 28.7391C18.4265 28.7391 21.2567 30.0896 23.1787 32.7904V30.2971C23.1787 29.8039 23.3104 29.4273 23.5736 29.1675C23.8369 28.8818 24.1923 28.7391 24.6399 28.7391C25.0875 28.7391 25.4298 28.8818 25.6667 29.1675C25.93 29.4273 26.0617 29.8039 26.0617 30.2971V58.3056C26.0617 58.7991 25.93 59.1758 25.6667 59.4353C25.4298 59.721 25.0875 59.8639 24.6399 59.8639ZM14.7668 46.1518C16.3728 46.1518 17.8077 45.8271 19.0715 45.178C20.3616 44.5286 21.362 43.6458 22.0729 42.5291C22.8101 41.3862 23.1787 40.101 23.1787 38.6724C23.1787 36.3611 22.4415 34.5433 20.9671 33.2188C19.4928 31.8683 17.4786 31.1931 14.9248 31.1931C12.3446 31.1931 10.3831 31.8425 9.04038 33.141C7.72398 34.4136 7.06575 36.2963 7.06575 38.7893C7.06575 41.1006 7.73713 42.9054 9.07987 44.2042C10.4489 45.5027 12.3446 46.1518 14.7668 46.1518Z" fill="#F5EFE9"/>
<path d="M14.1212 30.1283C13.6736 30.1283 13.3182 29.9986 13.0549 29.7388C12.8179 29.4531 12.6995 29.0635 12.6995 28.5702V1.73043C12.6995 1.237 12.8179 0.860442 13.0549 0.600746C13.3182 0.315077 13.6736 0.172241 14.1212 0.172241C14.5688 0.172241 14.9242 0.315077 15.1875 0.600746C15.4508 0.860442 15.5824 1.237 15.5824 1.73043L15.6219 14.2349C17.8335 11.586 20.6638 10.2615 24.1128 10.2615C26.2454 10.2615 28.1016 10.664 29.6813 11.4691C31.261 12.2742 32.4721 13.4298 33.3146 14.9361C34.1833 16.4164 34.6179 18.1693 34.6179 20.195C34.6179 23.3633 33.6964 25.8174 31.8534 27.5574C30.0104 29.2714 27.417 30.1283 24.0733 30.1283C20.361 30.1283 17.5307 28.7779 15.5824 26.0772V28.5702C15.5824 29.0377 15.4508 29.4144 15.1875 29.7C14.9505 29.9856 14.5951 30.1283 14.1212 30.1283ZM23.8758 27.6743C26.456 27.6743 28.4043 27.051 29.7208 25.8045C31.0372 24.5319 31.6954 22.6621 31.6954 20.195C31.6954 17.8577 30.9977 16.0268 29.6023 14.7024C28.2069 13.3779 26.2981 12.7157 23.8758 12.7157C22.2961 12.7157 20.8744 13.0403 19.6107 13.6895C18.3469 14.3128 17.3596 15.1958 16.6487 16.3385C15.9379 17.4811 15.5824 18.7666 15.5824 20.195C15.5824 22.5063 16.3196 24.3372 17.794 25.6876C19.2684 27.0121 21.2957 27.6743 23.8758 27.6743Z" fill="#F5EFE9"/>
</g>
<defs>
<filter id="filter0_d_583_233" x="0" y="0" width="47" height="68" filterUnits="userSpaceOnUse" color-interpolation-filters="sRGB">
<feFlood flood-opacity="0" result="BackgroundImageFix"/>
<feColorMatrix in="SourceAlpha" type="matrix" values="0 0 0 0 0 0 0 0 0 0 0 0 0 0 0 0 0 0 127 0" result="hardAlpha"/>
<feOffset dy="4"/>
<feGaussianBlur stdDeviation="2"/>
<feComposite in2="hardAlpha" operator="out"/>
<feColorMatrix type="matrix" values="0 0 0 0 0 0 0 0 0 0 0 0 0 0 0 0 0 0 0.14 0"/>
<feBlend mode="normal" in2="BackgroundImageFix" result="effect1_dropShadow_583_233"/>
<feBlend mode="normal" in="SourceGraphic" in2="effect1_dropShadow_583_233" result="shape"/>
</filter>
<clipPath id="clip0_583_233">
<rect width="39" height="60" fill="white" transform="translate(4)"/>
</clipPath>
</defs>
</svg>
