<svg width="32" height="26" viewBox="0 0 32 26" fill="none" xmlns="http://www.w3.org/2000/svg">
<path d="M15.6 4.1201L14.8164 4.84248C14.9179 4.94332 15.0396 5.02353 15.1743 5.07831C15.3089 5.1331 15.4537 5.16133 15.6 5.16133C15.7463 5.16133 15.8911 5.1331 16.0257 5.07831C16.1604 5.02353 16.2821 4.94332 16.3836 4.84248L15.6 4.1201ZM8.34564 19.2902C8.12241 19.1144 7.8354 19.0308 7.54774 19.0576C7.26008 19.0844 6.99534 19.2196 6.81176 19.4333C6.62817 19.6469 6.54078 19.9217 6.56882 20.1971C6.59685 20.4725 6.738 20.7259 6.96123 20.9016L8.34564 19.2902ZM1.58467 15.1101C1.65327 15.2301 1.74591 15.336 1.85728 15.4218C1.96864 15.5076 2.09657 15.5715 2.23375 15.6099C2.37093 15.6484 2.51467 15.6606 2.65678 15.6458C2.79888 15.6311 2.93656 15.5897 3.06195 15.524C3.18735 15.4584 3.298 15.3697 3.3876 15.2631C3.47719 15.1565 3.54398 15.034 3.58413 14.9027C3.62429 14.7714 3.63703 14.6337 3.62164 14.4977C3.60624 14.3617 3.563 14.2299 3.4944 14.1098L1.58467 15.1101ZM2.17674 9.17262C2.17674 6.18584 3.93991 3.67972 6.34739 2.62532C8.68666 1.60148 11.8299 1.87237 14.8164 4.84248L16.3836 3.3991C12.8428 -0.125297 8.72729 -0.707372 5.44186 0.73045C2.22899 2.13771 0 5.40511 0 9.17262H2.17674ZM10.5166 23.5689C11.261 24.1301 12.0592 24.7275 12.8675 25.1804C13.6758 25.6333 14.5987 26 15.6 26V23.9162C15.1501 23.9162 14.6219 23.7495 13.966 23.3814C13.3086 23.0146 12.628 22.5089 11.8647 21.9324L10.5166 23.5689ZM20.6834 23.5689C22.7528 22.0061 25.3997 20.2168 27.4749 17.9788C29.5892 15.7005 31.2 12.8762 31.2 9.17262H29.0233C29.0233 12.2261 27.7172 14.578 25.8481 16.5951C23.9398 18.6511 21.5353 20.2723 19.3353 21.9324L20.6834 23.5689ZM31.2 9.17262C31.2 5.40511 28.9725 2.13771 25.7581 0.73045C22.4727 -0.707372 18.3601 -0.125297 14.8164 3.39771L16.3836 4.84248C19.3701 1.87376 22.5133 1.60148 24.8526 2.62532C27.2601 3.67972 29.0233 6.18445 29.0233 9.17262H31.2ZM19.3353 21.9324C18.572 22.5089 17.8914 23.0146 17.234 23.3814C16.5766 23.7481 16.0499 23.9162 15.6 23.9162V26C16.6013 26 17.5242 25.6319 18.3325 25.1804C19.1423 24.7275 19.939 24.1301 20.6834 23.5689L19.3353 21.9324ZM11.8647 21.9324C10.7096 21.0614 9.53559 20.2279 8.34564 19.2902L6.96123 20.9016C8.16569 21.8505 9.43981 22.7562 10.5166 23.5689L11.8647 21.9324ZM3.4944 14.1112C2.62011 12.6004 2.16636 10.8997 2.17674 9.17262H0C0 11.4481 0.609488 13.4027 1.58467 15.1101L3.4944 14.1112Z" fill="#2C4B42"/>
</svg>
