<svg width="23" height="28" viewBox="0 0 23 28" fill="none" xmlns="http://www.w3.org/2000/svg">
<path d="M12.1564 7.5534C11.3331 7.41579 10.487 7.54096 9.74024 7.91081C8.99348 8.28066 8.38474 8.87606 8.00195 9.611C7.61916 10.3459 7.48213 11.1824 7.61066 11.9995C7.73919 12.8166 8.12662 13.5721 8.71699 14.1569C9.30736 14.7417 10.0701 15.1254 10.8951 15.2527C11.72 15.38 12.5645 15.2443 13.3065 14.8651C14.0485 14.486 14.6496 13.883 15.023 13.1434C15.3964 12.4037 15.5228 11.5656 15.3838 10.7502" stroke="#2C4B42" stroke-width="1.5" stroke-linecap="round"/>
<path d="M2.3125 18.1812C1.46331 16.0309 1 13.7416 1 11.5861C1 5.7399 5.70137 1 11.5 1C17.2986 1 22 5.7399 22 11.5861C22 17.3869 18.6492 24.1574 13.4202 26.5768C12.8192 26.8555 12.1636 27 11.5 27C10.8364 27 10.1808 26.8555 9.57981 26.5768C7.91031 25.8045 6.43112 24.5877 5.19212 23.1005" stroke="#2C4B42" stroke-width="1.5" stroke-linecap="round"/>
</svg>
