<svg width="22" height="22" viewBox="0 0 22 22" fill="none" xmlns="http://www.w3.org/2000/svg">
<path d="M14.5294 1H7.47059C3.89698 1 1 3.89698 1 7.47059V14.5294C1 18.103 3.89698 21 7.47059 21H14.5294C18.103 21 21 18.103 21 14.5294V7.47059C21 3.89698 18.103 1 14.5294 1Z" stroke="#2C4B42" stroke-width="1.5" stroke-linecap="round" stroke-linejoin="round"/>
<path d="M11.0002 15.2424C13.3432 15.2424 15.2425 13.343 15.2425 11C15.2425 8.65703 13.3432 6.75766 11.0002 6.75766C8.65718 6.75766 6.75781 8.65703 6.75781 11C6.75781 13.343 8.65718 15.2424 11.0002 15.2424Z" stroke="#2C4B42" stroke-width="1.5" stroke-linecap="round" stroke-linejoin="round"/>
<path d="M16.7577 6.45414C17.4269 6.45414 17.9694 5.91161 17.9694 5.24237C17.9694 4.57313 17.4269 4.03061 16.7577 4.03061C16.0884 4.03061 15.5459 4.57313 15.5459 5.24237C15.5459 5.91161 16.0884 6.45414 16.7577 6.45414Z" fill="#2C4B42"/>
</svg>
