<svg width="32" height="32" viewBox="0 0 32 32" fill="none" xmlns="http://www.w3.org/2000/svg">
<path d="M5.0027 9.23332C4.99561 9.10217 4.96275 8.97371 4.90601 8.85526C4.84928 8.73681 4.76976 8.63069 4.67201 8.54297C4.57426 8.45525 4.46019 8.38764 4.33632 8.34401C4.21244 8.30037 4.08118 8.28156 3.95003 8.28865C3.81889 8.29574 3.69042 8.3286 3.57197 8.38534C3.45352 8.44208 3.3474 8.52159 3.25968 8.61934C3.17196 8.71709 3.10436 8.83116 3.06072 8.95504C3.01708 9.07891 2.99827 9.21017 3.00537 9.34132L5.0027 9.23332ZM6.2907 4.12265C6.11559 4.31617 6.02307 4.57048 6.0329 4.83129C6.04273 5.09209 6.15413 5.33871 6.34332 5.5185C6.5325 5.69829 6.78448 5.79699 7.04544 5.79353C7.30641 5.79007 7.55568 5.68472 7.74003 5.49999L6.2907 4.12265ZM14.2187 26.416C14.3299 26.4876 14.4542 26.5365 14.5844 26.5598C14.7146 26.5831 14.8482 26.5803 14.9773 26.5516C15.1065 26.5229 15.2286 26.4689 15.3367 26.3926C15.4448 26.3164 15.5368 26.2195 15.6071 26.1075C15.6775 25.9954 15.725 25.8706 15.7468 25.7401C15.7685 25.6096 15.7642 25.4761 15.734 25.3473C15.7039 25.2185 15.6484 25.097 15.571 24.9898C15.4935 24.8825 15.3955 24.7917 15.2827 24.7227L14.2187 26.416ZM20.1507 26.744C19.891 26.6897 19.6203 26.7408 19.3983 26.8861C19.1762 27.0314 19.021 27.2589 18.9667 27.5187C18.9124 27.7784 18.9635 28.049 19.1088 28.2711C19.2541 28.4931 19.4816 28.6484 19.7414 28.7027L20.1507 26.744ZM20.86 20.7253L21.4667 20.0853L20.016 18.708L19.4094 19.348L20.86 20.7253ZM23.4654 19.816L26.012 21.2827L27.0107 19.5493L24.4627 18.0827L23.4654 19.816ZM26.504 24.3227L24.6094 26.316L26.06 27.6947L27.9534 25.7L26.504 24.3227ZM11.1454 21.2787C5.97737 15.8373 5.1107 11.2467 5.0027 9.23332L3.00537 9.34132C3.1387 11.808 4.18403 16.8533 9.69603 22.656L11.1454 21.2787ZM12.98 12.4293L13.3614 12.0267L11.912 10.6493L11.5294 11.052L12.98 12.4293ZM13.6627 7.01332L11.9814 4.63599L10.348 5.79065L12.028 8.16799L13.6627 7.01332ZM12.2534 11.74C12.0134 11.5087 11.7712 11.2798 11.5267 11.0533L11.524 11.056L11.52 11.06L11.4534 11.1373C11.3228 11.3104 11.2194 11.5024 11.1467 11.7067C11.016 12.0733 10.9467 12.5587 11.0347 13.164C11.208 14.3533 11.988 15.952 14.024 18.0973L15.4747 16.7187C13.5707 14.7147 13.1014 13.4813 13.0134 12.8733C12.9707 12.58 13.0134 12.4267 13.0307 12.3773L13.0414 12.352L13.004 12.4013L12.98 12.4293L12.2534 11.74ZM14.024 18.096C16.0547 20.2347 17.588 21.0747 18.7574 21.2653C19.3587 21.3627 19.8454 21.284 20.2134 21.1387C20.4179 21.0592 20.608 20.9466 20.776 20.8053L20.8227 20.76L20.8414 20.7413L20.8507 20.7333L20.8547 20.7293L20.856 20.7267C20.856 20.7267 20.8587 20.7253 20.1334 20.036C19.408 19.348 19.4094 19.3467 19.4094 19.3453L19.412 19.344L19.4147 19.34L19.4227 19.3333L19.4854 19.2773C19.4978 19.2702 19.4956 19.2707 19.4787 19.2787C19.452 19.2893 19.332 19.332 19.0787 19.2907C18.5427 19.2027 17.3854 18.7307 15.4747 16.7187L14.024 18.096ZM11.9814 4.63599C10.6294 2.72399 7.92536 2.39999 6.2907 4.12265L7.74003 5.49999C8.43737 4.76665 9.66537 4.82399 10.348 5.79065L11.9814 4.63599ZM24.6094 26.316C24.2374 26.708 23.8494 26.9187 23.4707 26.956L23.6667 28.9453C24.6627 28.848 25.4694 28.3173 26.06 27.6947L24.6094 26.316ZM13.3614 12.0267C14.652 10.668 14.7427 8.54265 13.6627 7.01332L12.0294 8.16799C12.592 8.96399 12.5054 10.0253 11.912 10.6493L13.3614 12.0267ZM26.012 21.2827C27.1067 21.9133 27.3214 23.4627 26.504 24.3227L27.9534 25.7C29.6934 23.868 29.1867 20.8027 27.0107 19.5493L26.012 21.2827ZM21.4667 20.0853C21.98 19.544 22.7814 19.4227 23.4654 19.816L24.4627 18.0827C22.9974 17.24 21.1827 17.4813 20.016 18.708L21.4667 20.0853ZM15.2827 24.7227C13.972 23.8987 12.576 22.784 11.1454 21.2787L9.69603 22.656C11.2347 24.276 12.7587 25.4987 14.2187 26.416L15.2827 24.7227ZM23.4694 26.956C22.3588 27.0529 21.2399 26.9814 20.1507 26.744L19.7414 28.7027C21.0301 28.9811 22.3535 29.0629 23.6667 28.9453L23.4694 26.956Z" fill="#2C4B42"/>
</svg>
