<svg width="27" height="28" viewBox="0 0 27 28" fill="none" xmlns="http://www.w3.org/2000/svg">
<path d="M13.1978 11.4C16.309 11.4 18.8311 9.07188 18.8311 6.2C18.8311 3.32812 16.309 1 13.1978 1C10.0866 1 7.56445 3.32812 7.56445 6.2C7.56445 9.07188 10.0866 11.4 13.1978 11.4Z" stroke="#2C4B42" stroke-width="2"/>
<path d="M24.4622 21.7998C24.464 21.5866 24.465 21.3699 24.465 21.1498C24.465 17.9193 19.4203 15.2998 13.1983 15.2998C6.97629 15.2998 1.93164 17.9193 1.93164 21.1498C1.93164 24.3803 1.93164 26.9998 13.1983 26.9998C16.3403 26.9998 18.6063 26.7957 20.24 26.4317" stroke="#2C4B42" stroke-width="2" stroke-linecap="round"/>
</svg>
