<svg width="23" height="23" viewBox="0 0 23 23" fill="none" xmlns="http://www.w3.org/2000/svg">
<path d="M3.13887 14.6588C2.32428 13.6008 1.91699 13.0709 1.91699 11.5002C1.91699 9.9285 2.32428 9.40046 3.13887 8.3415C4.76516 6.22933 7.49258 3.8335 11.5003 3.8335C15.5081 3.8335 18.2355 6.22933 19.8618 8.3415C20.6764 9.40141 21.0837 9.92945 21.0837 11.5002C21.0837 13.0718 20.6764 13.5999 19.8618 14.6588C18.2355 16.771 15.5081 19.1668 11.5003 19.1668C7.49258 19.1668 4.76516 16.771 3.13887 14.6588Z" stroke="#2C4B42" stroke-width="1.5"/>
<path d="M14.375 11.5C14.375 12.2625 14.0721 12.9938 13.5329 13.5329C12.9938 14.0721 12.2625 14.375 11.5 14.375C10.7375 14.375 10.0062 14.0721 9.46707 13.5329C8.9279 12.9938 8.625 12.2625 8.625 11.5C8.625 10.7375 8.9279 10.0062 9.46707 9.46707C10.0062 8.9279 10.7375 8.625 11.5 8.625C12.2625 8.625 12.9938 8.9279 13.5329 9.46707C14.0721 10.0062 14.375 10.7375 14.375 11.5Z" stroke="#2C4B42" stroke-width="1.5"/>
</svg>
