<svg width="10" height="5" viewBox="0 0 10 5" fill="none" xmlns="http://www.w3.org/2000/svg">
<path d="M5.31153 4.88191L9.88116 0.638906C9.95744 0.568109 10 0.474051 10 0.37624C10 0.278429 9.95744 0.184371 9.88116 0.113574L9.876 0.109006C9.83901 0.0745659 9.7945 0.047142 9.74516 0.0284024C9.69582 0.00966265 9.64269 -9.22437e-07 9.58899 -9.17743e-07C9.5353 -9.13049e-07 9.48217 0.00966267 9.43283 0.0284024C9.38349 0.0471421 9.33898 0.0745659 9.30199 0.109006L4.99914 4.10458L0.698005 0.109007C0.661024 0.0745667 0.616509 0.0471428 0.567171 0.0284032C0.517831 0.00966346 0.464698 -1.20072e-07 0.411005 -1.15378e-07C0.357311 -1.10684e-07 0.304179 0.00966348 0.254839 0.0284032C0.2055 0.0471429 0.160986 0.0745667 0.124004 0.109007L0.11884 0.113575C0.0425554 0.184371 -4.12773e-07 0.278429 -4.04222e-07 0.376241C-3.95671e-07 0.474052 0.0425554 0.56811 0.11884 0.638907L4.68847 4.88191C4.72866 4.91923 4.77699 4.94894 4.83054 4.96924C4.88409 4.98953 4.94174 5 5 5C5.05826 5 5.11591 4.98953 5.16946 4.96924C5.22301 4.94894 5.27134 4.91923 5.31153 4.88191Z" fill="#2C4B42"/>
</svg>
